<?xml version="1.0" encoding="utf-8"?>
<!-- Generator: Adobe Illustrator 18.1.0, SVG Export Plug-In . SVG Version: 6.00 Build 0)  -->
<!DOCTYPE svg PUBLIC "-//W3C//DTD SVG 1.1//EN" "http://www.w3.org/Graphics/SVG/1.1/DTD/svg11.dtd">
<svg version="1.1" id="Layer_1" xmlns="http://www.w3.org/2000/svg" xmlns:xlink="http://www.w3.org/1999/xlink" x="0px" y="0px"
	 viewBox="0 0 152 152" enable-background="new 0 0 152 152" xml:space="preserve">
<path d="M114.6,109.2c-2,0-3.6,0.9-5,2.4c0.3,3.5,1.6,6.6,5.4,6.6c2.8,0,4.5-2.2,4.5-4.3C119.5,110.3,116.7,109.2,114.6,109.2z"/>
<path d="M85.9,38c0-2.7-1.9-4-4.2-4H77v8h4.7C84,42,85.9,40.7,85.9,38z"/>
<polygon points="39.9,35.9 36.5,51 43.2,51 "/>
<path d="M140,0H12C5.4,0,0,5.4,0,12v128c0,6.6,5.4,12,12,12h128c6.6,0,12-5.4,12-12V12C152,5.4,146.6,0,140,0z M64,22h19.7
	c9.5,0,15.3,7,15.3,15.4c0,7.7-3.8,11.6-6.9,13.3L99.3,68H85l-5.1-15H77v15H64V22z M32,22h15.7l13.4,46h-14l-1.3-6H33.9l-1.3,6h-14
	L32,22z M38,129.6c-8.1,0-14.3-3-17.7-7.2l7.3-8.4c2.7,2.7,6.5,4.1,9.9,4.1c4,0,5.6-1.7,5.6-3.5c0-2.3-1.9-3.2-6.1-3.2
	c-1.6,0-3.9,0-4.9,0.1V100c1,0.1,3.6,0.1,4.7,0.1c3.8,0,5.7-1,5.7-2.9c0-2.3-2.2-3.3-5.5-3.3c-3.2,0-6.7,1.2-9,3.7l-7-7.6
	c3.8-4.8,9.7-7.5,17.1-7.5c10.7,0,17.1,4.6,17.1,12.6c0,4.8-3.9,9.3-9.1,10.2c5.2,0.8,9.8,4.9,9.8,10.8
	C55.8,124.2,48.5,129.6,38,129.6z M75.9,129.6c-8.1,0-14.3-3-17.7-7.2l7.3-8.4c2.7,2.7,6.5,4.1,9.9,4.1c4,0,5.6-1.7,5.6-3.5
	c0-2.3-1.9-3.2-6.1-3.2c-1.6,0-3.9,0-4.9,0.1V100c1,0.1,3.5,0.1,4.6,0.1c3.8,0,5.7-1,5.7-2.9c0-2.3-2.2-3.3-5.5-3.3
	c-3.2,0-6.7,1.2-9,3.7l-7-7.6c3.8-4.8,9.7-7.5,17.1-7.5c10.7,0,17.1,4.6,17.1,12.6c0,4.8-3.9,9.3-9.1,10.2c5.2,0.8,9.8,4.9,9.8,10.8
	C93.7,124.2,86.5,129.6,75.9,129.6z M115.8,129.6c-13.3,0-19.3-10.3-19.3-23.6c0-15.1,8.6-23.6,21.2-23.6c4.9,0,9.6,1.6,12.7,4.2
	l-5.9,9.8c-1.9-1.8-3.8-2.5-6.5-2.5c-3.9,0-8,3.1-8,9c0,0.1,0,0.1,0,0.3c1-3.1,5.3-4.9,9.2-4.9c7.1,0,13.5,5.3,13.5,15.1
	C132.7,123.2,125.3,129.6,115.8,129.6z M133,34h-9v34h-13V34h-9V22h31V34z"/>
</svg>
